<mxfile host="65bd71144e">
    <diagram id="w-8JBNn3I10dUs7RClOM" name="Page-1">
        <mxGraphModel dx="1995" dy="1160" grid="1" gridSize="10" guides="1" tooltips="1" connect="1" arrows="1" fold="1" page="1" pageScale="1" pageWidth="1169" pageHeight="827" math="0" shadow="0">
            <root>
                <mxCell id="0"/>
                <mxCell id="1" parent="0"/>
                <mxCell id="14" style="edgeStyle=none;html=1;" edge="1" parent="1" source="4" target="5">
                    <mxGeometry relative="1" as="geometry"/>
                </mxCell>
                <mxCell id="4" value="Customer" style="sketch=0;pointerEvents=1;shadow=0;dashed=0;html=1;strokeColor=none;fillColor=#505050;labelPosition=center;verticalLabelPosition=bottom;verticalAlign=top;outlineConnect=0;align=center;shape=mxgraph.office.users.user;" vertex="1" parent="1">
                    <mxGeometry x="170" y="460" width="46" height="50" as="geometry"/>
                </mxCell>
                <mxCell id="5" value="Website" style="sketch=0;pointerEvents=1;shadow=0;dashed=0;html=1;strokeColor=none;fillColor=#505050;labelPosition=center;verticalLabelPosition=bottom;verticalAlign=top;outlineConnect=0;align=center;shape=mxgraph.office.concepts.application_web;" vertex="1" parent="1">
                    <mxGeometry x="350" y="461" width="56" height="49" as="geometry"/>
                </mxCell>
                <mxCell id="10" value="Finance" style="sketch=0;pointerEvents=1;shadow=0;dashed=0;html=1;strokeColor=none;fillColor=#505050;labelPosition=center;verticalLabelPosition=bottom;verticalAlign=top;outlineConnect=0;align=center;shape=mxgraph.office.concepts.calculator;" vertex="1" parent="1">
                    <mxGeometry x="560" y="401" width="32" height="46" as="geometry"/>
                </mxCell>
                <mxCell id="11" value="Customer confirmation email" style="sketch=0;pointerEvents=1;shadow=0;dashed=0;html=1;strokeColor=none;fillColor=#505050;labelPosition=center;verticalLabelPosition=bottom;verticalAlign=top;outlineConnect=0;align=center;shape=mxgraph.office.concepts.email;" vertex="1" parent="1">
                    <mxGeometry x="560" y="541" width="47" height="36" as="geometry"/>
                </mxCell>
                <mxCell id="15" value="" style="edgeStyle=elbowEdgeStyle;elbow=horizontal;endArrow=classic;html=1;curved=0;rounded=0;endSize=8;startSize=8;" edge="1" parent="1" source="5" target="10">
                    <mxGeometry width="50" height="50" relative="1" as="geometry">
                        <mxPoint x="420" y="481" as="sourcePoint"/>
                        <mxPoint x="470" y="431" as="targetPoint"/>
                    </mxGeometry>
                </mxCell>
                <mxCell id="16" value="" style="edgeStyle=elbowEdgeStyle;elbow=horizontal;endArrow=classic;html=1;curved=0;rounded=0;endSize=8;startSize=8;" edge="1" parent="1" source="5" target="11">
                    <mxGeometry width="50" height="50" relative="1" as="geometry">
                        <mxPoint x="430" y="481" as="sourcePoint"/>
                        <mxPoint x="480" y="431" as="targetPoint"/>
                        <Array as="points">
                            <mxPoint x="480" y="511"/>
                            <mxPoint x="480" y="521"/>
                        </Array>
                    </mxGeometry>
                </mxCell>
                <mxCell id="17" value="Management" style="sketch=0;pointerEvents=1;shadow=0;dashed=0;html=1;strokeColor=none;fillColor=#505050;labelPosition=center;verticalLabelPosition=bottom;verticalAlign=top;outlineConnect=0;align=center;shape=mxgraph.office.users.meeting;" vertex="1" parent="1">
                    <mxGeometry x="740" y="341" width="59" height="38" as="geometry"/>
                </mxCell>
                <mxCell id="20" value="Operations" style="sketch=0;pointerEvents=1;shadow=0;dashed=0;html=1;strokeColor=none;fillColor=#505050;labelPosition=center;verticalLabelPosition=bottom;verticalAlign=top;outlineConnect=0;align=center;shape=mxgraph.office.servers.on_premises_server;" vertex="1" parent="1">
                    <mxGeometry x="740" y="471" width="44" height="58" as="geometry"/>
                </mxCell>
                <mxCell id="21" value="" style="edgeStyle=elbowEdgeStyle;elbow=horizontal;endArrow=classic;html=1;curved=0;rounded=0;endSize=8;startSize=8;" edge="1" parent="1" source="10" target="17">
                    <mxGeometry width="50" height="50" relative="1" as="geometry">
                        <mxPoint x="550" y="501" as="sourcePoint"/>
                        <mxPoint x="600" y="451" as="targetPoint"/>
                    </mxGeometry>
                </mxCell>
                <mxCell id="23" value="Customer does&lt;br&gt;not exist in database" style="edgeLabel;html=1;align=center;verticalAlign=middle;resizable=0;points=[];" vertex="1" connectable="0" parent="21">
                    <mxGeometry x="0.1378" y="2" relative="1" as="geometry">
                        <mxPoint as="offset"/>
                    </mxGeometry>
                </mxCell>
                <mxCell id="22" value="" style="edgeStyle=elbowEdgeStyle;elbow=horizontal;endArrow=classic;html=1;curved=0;rounded=0;endSize=8;startSize=8;" edge="1" parent="1" source="10" target="20">
                    <mxGeometry width="50" height="50" relative="1" as="geometry">
                        <mxPoint x="550" y="501" as="sourcePoint"/>
                        <mxPoint x="600" y="451" as="targetPoint"/>
                    </mxGeometry>
                </mxCell>
                <mxCell id="24" value="Customer exisits&lt;br&gt;in database" style="edgeLabel;html=1;align=center;verticalAlign=middle;resizable=0;points=[];" vertex="1" connectable="0" parent="22">
                    <mxGeometry x="-0.0965" y="-1" relative="1" as="geometry">
                        <mxPoint as="offset"/>
                    </mxGeometry>
                </mxCell>
                <mxCell id="25" value="Legal" style="sketch=0;pointerEvents=1;shadow=0;dashed=0;html=1;strokeColor=none;fillColor=#505050;labelPosition=center;verticalLabelPosition=bottom;verticalAlign=top;outlineConnect=0;align=center;shape=mxgraph.office.concepts.book_journal;" vertex="1" parent="1">
                    <mxGeometry x="920" y="422" width="41" height="49" as="geometry"/>
                </mxCell>
                <mxCell id="26" value="" style="edgeStyle=elbowEdgeStyle;elbow=horizontal;endArrow=classic;html=1;curved=0;rounded=0;endSize=8;startSize=8;" edge="1" parent="1" source="17" target="25">
                    <mxGeometry width="50" height="50" relative="1" as="geometry">
                        <mxPoint x="530" y="381" as="sourcePoint"/>
                        <mxPoint x="580" y="331" as="targetPoint"/>
                    </mxGeometry>
                </mxCell>
                <mxCell id="33" value="Cannot &lt;br&gt;locate &lt;br&gt;customer &lt;br&gt;contract" style="edgeLabel;html=1;align=center;verticalAlign=middle;resizable=0;points=[];" vertex="1" connectable="0" parent="26">
                    <mxGeometry x="0.1381" relative="1" as="geometry">
                        <mxPoint y="-1" as="offset"/>
                    </mxGeometry>
                </mxCell>
                <mxCell id="30" value="" style="edgeStyle=segmentEdgeStyle;endArrow=classic;html=1;curved=0;rounded=0;endSize=8;startSize=8;" edge="1" parent="1" source="17" target="10">
                    <mxGeometry width="50" height="50" relative="1" as="geometry">
                        <mxPoint x="770.0588235294117" y="301" as="sourcePoint"/>
                        <mxPoint x="570.0588235294117" y="331" as="targetPoint"/>
                        <Array as="points">
                            <mxPoint x="860" y="361"/>
                            <mxPoint x="860" y="251"/>
                            <mxPoint x="570" y="251"/>
                        </Array>
                    </mxGeometry>
                </mxCell>
                <mxCell id="32" value="Maps &lt;br&gt;customer contract &lt;br&gt;to database" style="edgeLabel;html=1;align=center;verticalAlign=middle;resizable=0;points=[];" vertex="1" connectable="0" parent="30">
                    <mxGeometry x="-0.5736" y="-1" relative="1" as="geometry">
                        <mxPoint as="offset"/>
                    </mxGeometry>
                </mxCell>
            </root>
        </mxGraphModel>
    </diagram>
</mxfile>